<?xml version="1.0" standalone="no"?>
<!DOCTYPE svg PUBLIC "-//W3C//DTD SVG 20010904//EN"
 "http://www.w3.org/TR/2001/REC-SVG-20010904/DTD/svg10.dtd">
<svg version="1.0" xmlns="http://www.w3.org/2000/svg"
 width="700.000000pt" height="700.000000pt" viewBox="0 0 700.000000 700.000000"
 preserveAspectRatio="xMidYMid meet">
<metadata>
Created by potrace 1.14, written by Peter Selinger 2001-2017
</metadata>
<g transform="translate(0.000000,700.000000) scale(0.100000,-0.100000)"
fill="#000000" stroke="none">
<path d="M6159 6520 c-67 -19 -103 -67 -113 -150 -28 -238 -225 -464 -529
-604 -109 -51 -291 -112 -392 -132 -252 -50 -383 -64 -710 -79 -131 -6 -175
-11 -310 -31 -460 -70 -924 -316 -1277 -677 -162 -166 -345 -404 -434 -567
-10 -19 -21 -37 -24 -40 -16 -16 -127 -240 -165 -335 -16 -38 -29 -71 -30 -72
-1 -1 -71 -16 -156 -33 -84 -17 -167 -36 -184 -42 -172 -67 -486 -447 -1077
-1303 -130 -188 -458 -686 -643 -975 -26 -41 -62 -95 -78 -120 -19 -28 -32
-62 -35 -92 -8 -85 4 -106 118 -198 30 -25 57 -47 60 -50 3 -3 27 -24 55 -45
27 -22 63 -52 80 -66 141 -124 359 -295 400 -314 109 -50 231 -55 336 -15 27
10 123 60 212 111 89 51 177 100 195 111 37 20 157 89 212 121 19 11 55 31 80
45 25 13 72 40 105 60 33 19 76 44 95 54 19 11 177 100 350 198 233 132 327
180 360 184 l46 7 51 -163 c28 -90 72 -227 97 -305 25 -79 67 -207 92 -285 53
-168 68 -196 117 -223 36 -21 42 -21 1575 -20 l1539 0 37 29 c72 54 83 138 31
219 -107 162 -415 536 -649 787 -121 129 -420 423 -450 441 -69 42 -165 13
-203 -61 -26 -49 -28 -81 -10 -123 7 -15 111 -128 232 -250 205 -206 276 -281
365 -382 138 -157 290 -343 290 -353 0 -4 -579 -7 -1287 -7 l-1288 0 -31 95
c-17 52 -57 176 -89 275 -31 99 -59 187 -62 195 -3 8 -7 20 -9 25 -1 6 -13 45
-27 87 l-25 77 27 5 c14 3 42 8 61 11 132 21 297 59 362 84 229 85 416 248
530 461 46 88 66 139 92 242 l23 88 139 -101 c76 -56 148 -109 159 -119 54
-48 116 -57 176 -27 77 39 105 127 65 200 -24 45 -192 175 -455 352 -57 39
-105 79 -107 88 -7 48 -49 232 -70 305 l-24 84 41 61 c105 155 288 352 434
466 44 34 87 68 95 74 101 81 364 219 535 282 95 35 320 97 395 109 19 3 46 8
60 10 14 3 79 12 145 21 465 62 783 240 1021 573 127 177 238 452 269 672 4
25 10 65 15 90 4 24 9 117 10 207 1 128 -2 169 -14 192 -40 77 -150 101 -220
47 -41 -31 -55 -59 -63 -126 -31 -265 -279 -510 -662 -654 l-44 -17 16 23
c178 251 274 491 317 793 18 121 23 368 8 402 -31 74 -107 113 -179 93z m-260
-899 c-16 -46 -100 -176 -154 -239 -94 -109 -243 -218 -371 -272 -75 -31 -82
-32 -338 -45 -65 -4 -126 -8 -136 -10 -11 -2 -45 -6 -77 -10 -276 -30 -659
-166 -903 -321 -284 -181 -548 -459 -715 -755 -64 -111 -70 -119 -94 -115 -14
3 -39 8 -56 11 -45 9 -411 13 -477 6 -32 -4 -58 -4 -58 -1 0 15 119 239 158
298 7 11 24 6 82 -23 87 -44 141 -49 193 -16 66 40 89 139 48 205 -13 20 -45
46 -82 66 l-61 32 24 26 c13 14 28 31 33 38 6 6 39 43 74 83 l63 71 47 -35
c112 -85 174 -107 237 -80 40 16 80 70 89 116 12 63 -14 106 -113 186 l-24 19
85 57 c90 60 117 74 117 61 0 -16 85 -100 113 -112 102 -44 213 39 204 151 -2
28 -13 60 -25 77 l-21 28 27 11 c33 13 178 58 213 66 23 6 27 2 39 -37 20 -62
48 -98 92 -118 120 -54 239 53 205 183 -7 25 -5 27 25 28 18 0 60 2 93 4 33 2
112 6 175 10 102 5 158 10 315 31 58 8 98 14 115 19 8 2 31 7 50 10 113 19
320 77 440 125 120 47 328 162 346 191 11 18 13 8 3 -20z m631 -538 c-81 -149
-197 -280 -330 -369 -93 -62 -276 -141 -368 -159 -41 -8 -74 -14 -102 -20 -14
-3 -50 -7 -80 -11 -377 -40 -772 -169 -1095 -359 -77 -45 -269 -176 -285 -194
-3 -3 -34 -31 -70 -61 -132 -111 -252 -241 -365 -392 -70 -92 -74 -96 -91 -80
-11 10 -90 73 -176 141 -87 68 -158 127 -158 132 0 11 70 141 86 160 8 8 14
21 14 27 0 26 25 20 92 -22 54 -35 81 -46 111 -46 161 0 212 196 73 283 -74
46 -74 48 -10 111 31 31 76 73 101 93 38 31 46 35 54 21 20 -36 116 -153 141
-171 35 -26 113 -27 155 -2 53 31 84 108 69 170 -3 13 -33 59 -65 103 -43 58
-57 83 -48 90 16 12 165 82 175 82 4 0 27 -42 50 -94 50 -107 81 -137 152
-144 71 -7 135 35 157 103 14 42 7 74 -31 158 l-34 72 27 7 c37 11 194 38 198
35 1 -2 5 -28 9 -58 9 -74 38 -125 88 -148 117 -56 229 35 212 174 -6 52 -5
55 16 56 145 7 311 25 493 55 282 46 585 155 790 283 44 28 81 50 83 51 2 0
-15 -35 -38 -77z m-3513 -1517 c91 -12 110 -22 245 -130 73 -58 201 -159 285
-225 150 -118 151 -120 168 -178 63 -212 97 -486 74 -593 -5 -25 -12 -56 -15
-69 -10 -47 -72 -167 -116 -226 -94 -127 -262 -236 -400 -260 -18 -4 -51 -10
-73 -15 -22 -5 -89 -18 -150 -29 -60 -11 -123 -23 -140 -26 -90 -17 -186 -35
-235 -45 -30 -5 -66 -12 -80 -15 -14 -3 -38 -7 -55 -11 -28 -6 -146 -68 -255
-134 -25 -15 -70 -41 -100 -58 -65 -35 -304 -171 -845 -480 -373 -213 -372
-213 -414 -217 -46 -4 -77 13 -173 93 l-79 66 58 27 c136 63 283 193 410 362
64 87 154 200 173 217 3 3 37 41 75 85 39 44 79 89 90 101 11 12 65 70 120
130 108 117 212 228 342 364 44 47 104 110 133 140 28 30 90 94 137 142 l86
88 56 -55 c81 -79 98 -89 151 -88 90 1 146 54 153 143 3 45 -19 86 -79 145
-35 34 -64 67 -64 72 0 4 23 32 51 61 59 61 53 62 142 -32 79 -84 117 -161
113 -229 -4 -66 -22 -101 -95 -182 -32 -35 -61 -77 -64 -92 -14 -73 18 -140
81 -172 80 -39 155 -6 248 110 224 277 164 593 -166 870 -133 111 -204 142
-274 119 -38 -12 -119 -93 -598 -591 -225 -234 -242 -252 -388 -409 -63 -68
-130 -139 -147 -157 -72 -76 -303 -333 -372 -416 -41 -48 -77 -86 -80 -85 -3
2 -63 32 -132 67 l-126 65 52 80 c272 416 754 1095 902 1271 10 11 37 45 62
75 24 30 51 62 60 72 122 126 159 159 191 168 40 12 231 46 305 55 28 3 64 8
80 10 67 10 125 15 230 21 61 4 111 8 113 9 6 5 281 -3 329 -9z m-2378 -2062
c58 -31 110 -60 115 -64 11 -11 -96 -94 -161 -125 -29 -14 -77 -28 -105 -33
-52 -8 -128 3 -128 18 0 4 31 54 68 111 38 57 74 114 81 127 6 12 14 22 18 22
3 0 54 -25 112 -56z"/>
<path d="M4739 2230 c-45 -13 -67 -29 -89 -66 -25 -39 -29 -109 -9 -146 20
-36 80 -85 121 -97 113 -34 220 83 177 196 -29 78 -129 134 -200 113z"/>
</g>
</svg>
