<svg width="19" height="13" viewBox="0 0 19 13" fill="none" xmlns="http://www.w3.org/2000/svg">
<path fill-rule="evenodd" clip-rule="evenodd" d="M17.7024 0.43868C17.9836 0.719972 18.1416 1.10143 18.1416 1.49918C18.1416 1.89693 17.9836 2.27839 17.7024 2.55968L7.8724 12.3897C7.57237 12.6895 7.16556 12.8579 6.7414 12.8579C6.31724 12.8579 5.91043 12.6895 5.6104 12.3897L1.4384 8.21668C1.29514 8.07831 1.18086 7.91279 1.10225 7.72979C1.02364 7.54678 0.982256 7.34995 0.980525 7.15078C0.978795 6.95161 1.01675 6.75409 1.09217 6.56975C1.16759 6.3854 1.27897 6.21793 1.41981 6.07709C1.56065 5.93625 1.72813 5.82487 1.91247 5.74945C2.09681 5.67403 2.29433 5.63607 2.4935 5.6378C2.69267 5.63954 2.8895 5.68091 3.07251 5.75953C3.25551 5.83814 3.42103 5.95241 3.5594 6.09568L6.7414 9.27768L15.5814 0.43868C15.8627 0.157779 16.2439 0 16.6414 0C17.0389 0 17.4211 0.157779 17.7024 0.43868Z" fill="#91BC35"/>
</svg>
