<svg width="23" height="13" viewBox="0 0 23 13" fill="none" xmlns="http://www.w3.org/2000/svg">
<path fill-rule="evenodd" clip-rule="evenodd" d="M16.7032 0.43918C16.9844 0.720471 17.1424 1.10193 17.1424 1.49968C17.1424 1.89743 16.9844 2.27889 16.7032 2.56018L11.7532 7.51018C11.4719 7.79157 11.0904 7.94971 10.6925 7.94981C10.2947 7.9499 9.91307 7.79194 9.63168 7.51068C9.35028 7.22942 9.19215 6.84789 9.19205 6.45003C9.19196 6.05218 9.34992 5.67057 9.63118 5.38918L14.5812 0.43918C14.8625 0.157973 15.2439 0 15.6417 0C16.0394 0 16.4219 0.157973 16.7032 0.43918ZM21.7032 0.43918C21.9844 0.720471 22.1424 1.10193 22.1424 1.49968C22.1424 1.89743 21.9844 2.27889 21.7032 2.56018L11.8732 12.3902C11.5732 12.69 11.1663 12.8584 10.7422 12.8584C10.318 12.8584 9.91121 12.69 9.61118 12.3902L5.43918 8.21718C5.29591 8.07881 5.18164 7.91329 5.10303 7.73029C5.02441 7.54728 4.98303 7.35045 4.9813 7.15128C4.97957 6.95211 5.01753 6.75459 5.09295 6.57025C5.16837 6.3859 5.27975 6.21843 5.42059 6.07759C5.56143 5.93675 5.7289 5.82537 5.91325 5.74995C6.09759 5.67453 6.29511 5.63657 6.49428 5.6383C6.69345 5.64003 6.89028 5.68141 7.07329 5.76003C7.25629 5.83864 7.42181 5.95291 7.56018 6.09618L10.7422 9.27818L19.5822 0.43918C19.8634 0.158279 20.2447 0.000499725 20.6422 0.000499725C21.0397 0.000499725 21.4219 0.158279 21.7032 0.43918ZM0.43818 6.09618C0.719471 5.81497 1.10093 5.657 1.49868 5.657C1.89643 5.657 2.27789 5.81497 2.55918 6.09618L6.80218 10.3392C6.9478 10.477 7.06432 10.6426 7.14485 10.8262C7.22538 11.0098 7.26829 11.2077 7.27103 11.4082C7.27377 11.6087 7.23629 11.8076 7.16081 11.9934C7.08533 12.1791 6.97338 12.3479 6.83158 12.4896C6.68977 12.6313 6.52099 12.7432 6.33521 12.8186C6.14944 12.894 5.95043 12.9314 5.74996 12.9285C5.54948 12.9257 5.35161 12.8827 5.16804 12.8021C4.98447 12.7215 4.81892 12.6049 4.68118 12.4592L0.43918 8.21818C0.157973 7.93689 0 7.55543 0 7.15768C0 6.75993 0.157973 6.37847 0.43918 6.09718L0.43818 6.09618Z" fill="#91BC35"/>
</svg>
