<svg width="38" height="38" viewBox="0 0 38 38" fill="none" xmlns="http://www.w3.org/2000/svg">
<path fill-rule="evenodd" clip-rule="evenodd" d="M1.17029 30.8264C-0.390097 32.3863 -0.390096 34.9154 1.17029 36.4752C2.73068 38.0351 5.26057 38.0351 6.82095 36.4752L18.8239 24.4761L31.1817 36.8299C32.7421 38.3898 35.272 38.3898 36.8324 36.8299C38.3927 35.27 38.3927 32.7409 36.8324 31.181L24.4746 18.8272L36.4869 6.81877C38.0473 5.25888 38.0473 2.7298 36.4869 1.16991C34.9265 -0.389973 32.3967 -0.389973 30.8363 1.16991L18.8239 13.1784L7.16638 1.52456C5.606 -0.0353262 3.07611 -0.035325 1.51572 1.52456C-0.0446642 3.08445 -0.0446649 5.61353 1.51572 7.17341L13.1733 18.8272L1.17029 30.8264Z" fill="#232323"/>
</svg>
