<svg width="31" height="31" viewBox="0 0 31 31" fill="none" xmlns="http://www.w3.org/2000/svg">
<g clip-path="url(#clip0_1018_178)">
<path fill-rule="evenodd" clip-rule="evenodd" d="M17.0097 20.7818C16.6581 21.133 16.1816 21.3302 15.6847 21.3302C15.1878 21.3302 14.7113 21.133 14.3597 20.7818L7.28719 13.7118C6.93561 13.3601 6.73816 12.8831 6.73828 12.3858C6.7384 11.8884 6.93607 11.4115 7.28781 11.06C7.63956 10.7084 8.11656 10.5109 8.61388 10.511C9.11121 10.5112 9.58811 10.7088 9.93969 11.0606L15.6847 16.8056L21.4297 11.0606C21.7832 10.7189 22.2567 10.5296 22.7483 10.5337C23.2399 10.5377 23.7103 10.7347 24.0581 11.0822C24.4059 11.4297 24.6033 11.8998 24.6078 12.3915C24.6123 12.8831 24.4236 13.3568 24.0822 13.7106L17.0109 20.7831L17.0097 20.7818Z" fill="black"/>
</g>
<defs>
<clipPath id="clip0_1018_178">
<rect width="30" height="30" fill="white" transform="translate(0.683594 0.706833)"/>
</clipPath>
</defs>
</svg>
