<svg width="122" height="40" viewBox="0 0 122 40" fill="none" xmlns="http://www.w3.org/2000/svg">
<path d="M111.477 34.8713H107.637V21.9482H111.569L114.394 26.5452L117.237 21.9482H121.151V34.8713H117.347V27.6344L115.52 30.7175H113.378L111.477 27.6344V34.8713Z" fill="#232323"/>
<path d="M93.2847 34.8713H89.9062V21.9482H93.7463V28.3729L98.7309 21.9482H101.999V34.8713H98.1955V28.5021L93.2847 34.8713ZM98.5278 20.4344C97.8386 21.0252 96.9893 21.3205 95.9801 21.3205C94.9709 21.3205 94.1216 21.0252 93.4324 20.4344C92.7432 19.819 92.3924 19.0005 92.3801 17.979H94.8909C94.9032 18.6436 95.2601 18.9759 95.9616 18.9759C96.6386 18.9759 96.9893 18.6436 97.0139 17.979H99.5616C99.537 19.0128 99.1924 19.8313 98.5278 20.4344Z" fill="#232323"/>
<path d="M74.8875 34.8714H70.7891L76.106 21.8745H79.8906L85.226 34.8714H80.9614L80.0383 32.453H75.8291L74.8875 34.8714ZM77.9337 26.416L76.9737 29.4807H78.8752L77.9337 26.416Z" fill="#232323"/>
<path d="M61.3127 35.1295C59.282 35.1295 57.6204 34.7233 56.3281 33.911V30.2002C56.8943 30.6433 57.5774 30.9879 58.3774 31.2341C59.1897 31.4802 59.9897 31.6033 60.7774 31.6033C62.2543 31.6033 62.9927 31.2402 62.9927 30.5141C62.9927 29.9725 62.4512 29.7018 61.3681 29.7018H59.4481V26.6925H61.5712C62.4081 26.6925 62.8266 26.4525 62.8266 25.9725C62.8266 25.4187 62.205 25.1418 60.962 25.1418C59.4235 25.1418 58.0204 25.4618 56.7527 26.1018V22.7233C58.1066 22.0341 59.645 21.6895 61.3681 21.6895C63.0297 21.6895 64.3466 22.0525 65.3189 22.7787C66.2912 23.4925 66.7774 24.391 66.7774 25.4741C66.7774 26.7171 66.2604 27.5787 65.2266 28.0587C65.7804 28.3171 66.2297 28.6987 66.5743 29.2033C66.9189 29.7079 67.0912 30.2925 67.0912 30.9571C67.0912 32.151 66.5681 33.1418 65.522 33.9295C64.4758 34.7295 63.0727 35.1295 61.3127 35.1295Z" fill="#232323"/>
<path d="M110.796 11.1565C111.337 11.7349 112.02 12.0242 112.845 12.0242C113.67 12.0242 114.353 11.7349 114.894 11.1565C115.436 10.5534 115.706 9.80879 115.706 8.92264C115.706 8.02418 115.436 7.28571 114.894 6.70725C114.365 6.11648 113.682 5.8211 112.845 5.8211C112.008 5.8211 111.325 6.11648 110.796 6.70725C110.254 7.28571 109.983 8.02418 109.983 8.92264C109.983 9.80879 110.254 10.5534 110.796 11.1565ZM107.879 13.6673C106.574 12.3626 105.922 10.7811 105.922 8.92264C105.922 7.06418 106.574 5.48264 107.879 4.17802C109.196 2.8611 110.851 2.20264 112.845 2.20264C114.826 2.20264 116.476 2.8611 117.793 4.17802C119.097 5.48264 119.75 7.06418 119.75 8.92264C119.75 10.7934 119.097 12.3811 117.793 13.6857C116.488 14.9903 114.839 15.6426 112.845 15.6426C110.851 15.6426 109.196 14.9842 107.879 13.6673Z" fill="#232323"/>
<path d="M90.5586 5.87632V2.46094H101.912V5.87632H98.2017V15.384H94.2324V5.87632H90.5586Z" fill="#232323"/>
<path d="M81.862 15.384H75.0312V2.46094H81.5851C82.7913 2.46094 83.7759 2.74401 84.5389 3.31017C85.3143 3.86401 85.702 4.68248 85.702 5.76555C85.702 6.39325 85.5297 6.91632 85.1851 7.33478C84.8282 7.76555 84.4836 8.06094 84.1513 8.22094C84.7174 8.33171 85.2651 8.70094 85.7943 9.32863C86.3359 9.94402 86.6066 10.7132 86.6066 11.6363C86.6066 12.7563 86.1697 13.6609 85.2959 14.3502C84.422 15.0394 83.2774 15.384 81.862 15.384ZM79.0005 10.0486V12.1902H81.0866C81.4436 12.1902 81.7266 12.0979 81.9359 11.9132C82.1574 11.7163 82.2682 11.4579 82.2682 11.1379C82.2682 10.8179 82.1574 10.5594 81.9359 10.3625C81.7143 10.1532 81.4312 10.0486 81.0866 10.0486H79.0005ZM79.0005 5.54401V7.2794H81.0128C81.2836 7.2794 81.5051 7.1994 81.6774 7.0394C81.862 6.8794 81.9543 6.68248 81.9543 6.44863C81.9543 6.17786 81.862 5.96248 81.6774 5.80248C81.5051 5.63017 81.2836 5.54401 81.0128 5.54401H79.0005Z" fill="#232323"/>
<path d="M60.0203 15.3841H55.9219L61.2388 2.38721H65.0234L70.3588 15.3841H66.0942L65.1711 12.9657H60.9619L60.0203 15.3841ZM63.0665 6.92875L62.1065 9.99336H64.008L63.0665 6.92875Z" fill="#232323"/>
<path d="M5.01425 15L8.77493 3.75H36.3533L40.114 15M36.3533 27.5C35.3559 27.5 34.3993 27.1049 33.6941 26.4017C32.9888 25.6984 32.5926 24.7446 32.5926 23.75C32.5926 22.7554 32.9888 21.8016 33.6941 21.0983C34.3993 20.3951 35.3559 20 36.3533 20C37.3507 20 38.3072 20.3951 39.0125 21.0983C39.7177 21.8016 40.114 22.7554 40.114 23.75C40.114 24.7446 39.7177 25.6984 39.0125 26.4017C38.3072 27.1049 37.3507 27.5 36.3533 27.5ZM8.77493 27.5C7.77753 27.5 6.82099 27.1049 6.11572 26.4017C5.41046 25.6984 5.01425 24.7446 5.01425 23.75C5.01425 22.7554 5.41046 21.8016 6.11572 21.0983C6.82099 20.3951 7.77753 20 8.77493 20C9.77232 20 10.7289 20.3951 11.4341 21.0983C12.1394 21.8016 12.5356 22.7554 12.5356 23.75C12.5356 24.7446 12.1394 25.6984 11.4341 26.4017C10.7289 27.1049 9.77232 27.5 8.77493 27.5ZM39.9134 2.5C39.412 1.05 38.008 0 36.3533 0H8.77493C7.12023 0 5.71624 1.05 5.21481 2.5L0 17.5V37.5C0 38.163 0.264142 38.7989 0.734319 39.2678C1.2045 39.7366 1.84219 40 2.50712 40H5.01425C5.67918 40 6.31687 39.7366 6.78705 39.2678C7.25722 38.7989 7.52137 38.163 7.52137 37.5V35H37.6068V37.5C37.6068 38.163 37.871 38.7989 38.3412 39.2678C38.8113 39.7366 39.449 40 40.114 40H42.6211C43.286 40 43.9237 39.7366 44.3939 39.2678C44.8641 38.7989 45.1282 38.163 45.1282 37.5V17.5L39.9134 2.5Z" fill="#91BC35"/>
</svg>
